<svg xmlns="http://www.w3.org/2000/svg" width="202" height="60" fill="none" viewBox="0 0 202 60"><path fill="#FC0015" d="M150.041 59.906c-1.009-.115-2.031-.187-3.015-.39-1.784-.37-3.411-.894-4.443-1.963-1.109-1.15-1.499-2.426-1.321-3.765.235-1.77 1.264-3.338 2.988-4.71.852-.677 1.894-1.202 3.105-1.579.17-.052.463-.085.153-.275-1.929-1.171-2.719-2.695-3.138-4.334-.035-.135-.038-.273-.155-.4-.213.072-.2.217-.26.33-.979 1.821-2.266 3.523-4.155 5.034-2.99 2.396-7.765 1.899-10.198.61-1.624-.86-2.441-2.047-2.666-3.38-.3-1.785.055-3.553.527-5.31.68-2.53 1.829-4.986 2.866-7.46.682-1.621 1.414-3.235 1.834-4.897.095-.375.207-.757.085-1.142q-.193-.59-.992-.3c-.52.19-.842.503-1.132.825-1.187 1.307-2.106 2.7-2.748 4.155-.982 2.231-2.091 4.435-3.076 6.666-.774 1.749-1.464 3.512-1.774 5.329-.239 1.411-.145 2.775.83 4.087.662.89.277 1.599-1.04 2.084-1.419.522-2.935.517-4.467.25-3.325-.583-5.064-2.087-5.736-4.213-.06-.192-.027-.402-.24-.617-.235.313-.442.597-.657.88-.639.844-1.444 1.616-2.348 2.35-2.226 1.81-5.174 2.104-8.337 1.437-2.751-.577-4.065-1.894-4.48-3.677-.102-.44-.165-.885-.25-1.345-.212.053-.222.183-.282.28-.815 1.292-1.899 2.474-3.32 3.52-3.019 2.219-7.78 2.034-10.344-.427-1.666-1.599-2.488-3.38-2.51-5.324-.02-1.631.23-3.258.24-4.887a5.1 5.1 0 0 0-.51-2.298c-.053-.108-.06-.235-.298-.33-.207.482-.412.947-.607 1.417-.867 2.073-1.711 4.154-2.191 6.286-.297 1.321-.492 2.648.06 3.965.127.307.362.592.505.896.382.817.06 1.385-1.067 1.82-1.414.544-2.93.531-4.462.274-3.303-.557-5.307-2.051-5.757-4.262-.02-.105-.062-.208-.1-.33-.23.065-.254.2-.332.305a13.8 13.8 0 0 1-3.2 3.085c-1.81 1.257-4.51 1.7-6.753 1.11-1.544-.405-2.586-1.13-3.128-2.157-.075-.14-.145-.28-.228-.44-.245.086-.302.238-.412.358-2.109 2.269-6.49 3.13-10.083 1.981-1.562-.5-2.541-1.344-3.268-2.338-.977-1.337-1.442-2.756-1.594-4.222-.4-3.86.782-7.566 2.65-11.196 1.375-2.665 3.156-5.209 5.644-7.52 1.357-1.26 2.876-2.428 4.742-3.388 1.894-.972 4.015-1.534 6.464-1.496 2.518.037 4.2.842 4.946 2.408.14.295.273.225.545.093 2.211-1.065 4.66-1.7 7.435-1.74a5 5 0 0 1 1.2.136c.979.232 1.304.65.916 1.281-.314.512-.727 1-1.076 1.504-1.762 2.539-2.949 5.21-4.178 7.868-1.626 3.517-3.045 7.07-4.357 10.64-.222.602-.367 1.217-.25 1.837.06.314.123.694.637.81.515.114.92-.16 1.252-.395.964-.683 1.609-1.497 2.156-2.346.915-1.42 1.454-2.911 2.021-4.4 1.34-3.525 3.06-6.976 4.802-10.423 1.717-3.396 3.456-6.788 4.772-10.264.505-1.331 1.035-2.666 1.072-4.05.015-.534-.03-1.062-.292-1.576-.51-1 .21-1.709 1.829-1.814a7.3 7.3 0 0 1 3.013.432c2.263.83 3.595 2.106 4.327 3.71.66 1.452.464 2.883.045 4.33-1.017 3.49-2.599 6.878-4.21 10.263-.595 1.25-1.167 2.506-1.749 3.758-.042.09-.105.177-.067.295.197 0 .307-.098.44-.163 1.67-.824 2.668-1.956 3.507-3.178 1.114-1.623 1.959-3.32 3.14-4.921.71-.96 1.387-1.934 2.626-2.674 1.63-.972 3.493-1.629 5.74-1.649 1.808-.017 3.532.255 5.038.96q.4.188.71.437c.912.73.804 1.514-.485 1.919-2.403.754-3.605 2.093-4.557 3.602-.71 1.125-1.436 2.252-2.538 3.236-2.064 1.844-4.762 3.135-8.135 3.8-.537.105-.53.102-.15.37 1.774 1.251 2.81 2.72 3.103 4.422.275 1.586.372 3.185.872 4.754.102.322.21.647.427.947.545.755 1.752.897 2.634.295.974-.662 1.594-1.477 2.178-2.299 1.105-1.556 1.702-3.207 2.249-4.879 1.326-4.055 3.058-8.035 5.394-11.897 1.169-1.936 3.375-3.058 6.448-3.495a8.7 8.7 0 0 1 2.241-.02c2.144.247 3.121 1.254 2.503 2.62-.572 1.267-1.194 2.521-1.776 3.785-1.846 4.018-3.613 8.05-4.912 12.162-.257.813-.492 1.632-.582 2.461-.055.508.028 1.002.475 1.442.577.567 1.362.645 2.153.197.872-.492 1.407-1.139 1.874-1.813.995-1.43 1.692-2.924 2.289-4.445.847-2.159 2.043-4.245 3.123-6.353 1.142-2.232 2.293-4.463 2.94-6.784.32-1.146.368-2.276-.214-3.407-.465-.902.447-1.614 2.038-1.67 1.694-.06 3.053.425 4.312 1.1 1.774.952 2.591 2.241 3.101 3.645l.085.225c.237-.137.322-.295.442-.437 1.189-1.402 2.623-2.676 4.592-3.658 1.851-.924 3.935-1.224 6.199-.857 2.261.365 3.385 1.437 3.882 2.838.382 1.072.327 2.157.157 3.243-.387 2.471-1.534 4.83-2.525 7.21-1.232 2.959-2.411 5.924-3.446 8.915-.152.44-.217.884-.162 1.334.06.482.235.974 1.007 1.152.819.187 1.399-.168 1.869-.56 1.121-.934 1.768-2.029 2.443-3.115.857-1.38 1.084-2.841 1.489-4.285 1.229-4.385 3.478-8.512 7.458-12.18 1.509-1.391 3.253-2.645 5.446-3.595 1.939-.842 4.065-1.237 6.411-1.054 2.044.16 3.363.902 4.075 2.133.282.49.26.485.942.18 2.171-.977 4.542-1.581 7.213-1.596.597-.003 1.164.085 1.669.31.439.197.597.464.512.802-.045.18-.123.354-.255.514-1.579 1.891-2.543 3.94-3.518 5.981-2.218 4.645-4.14 9.344-5.983 14.059a51 51 0 0 1-1.954 4.417c-.04.077-.063.16-.118.297.39-.122.617-.3.852-.457q2.676-1.803 4.435-4.037c.127-.163.145-.323.142-.492-.055-5.684 2.294-10.936 6.756-15.793a20.9 20.9 0 0 1 6.988-5.032c2.941-1.314 6.124-1.723 9.541-.981 2.506.544 4.038 1.788 5.11 3.297.959 1.352 1.321 2.801 1.491 4.273.018.147 0 .3.1.44v1.726c-.03.115-.077.227-.087.345a19.2 19.2 0 0 1-.915 4.522c-1.109 3.387-2.913 6.603-5.689 9.568-1.841 1.964-4.045 3.728-7.04 4.99-3.493 1.469-7.168 1.604-10.808.304-2.404-.856-3.725-2.343-4.557-4.012-.128-.257-.238-.517-.395-.857-.272.347-.482.62-.697.89-1.914 2.423-4.335 4.582-7.66 6.27-.295.15-.497.318-.647.54-1.159 1.73-2.434 3.42-4.167 4.942-1.724 1.514-3.823 2.706-6.689 3.218-.632.112-1.286.127-1.918.23h-.687zm32.039-19.005c-.012.342-.007.685.143 1.014.222.488.704.615 1.386.373.607-.218 1.015-.565 1.389-.927 1.282-1.234 2.204-2.584 3.026-3.968 1.684-2.833 3.168-5.704 3.838-8.727.177-.802.332-1.606.189-2.418-.057-.325-.102-.702-.687-.815-.572-.11-.989.143-1.361.39-.647.433-1.09.957-1.512 1.487-2.433 3.035-4.112 6.256-5.419 9.564-.522 1.321-.932 2.655-.992 4.027M163.477 27.01c0-.267.01-.532-.005-.8-.005-.104-.052-.21-.097-.312-.212-.494-.75-.63-1.424-.357-.295.12-.54.275-.76.45-.534.422-.944.894-1.329 1.376-2.056 2.556-3.53 5.262-4.757 8.028-.777 1.749-1.456 3.515-1.599 5.346-.032.407-.025.812.16 1.202.22.47.705.587 1.367.345.392-.143.699-.35.979-.572.707-.565 1.254-1.197 1.752-1.844 1.731-2.254 2.99-4.627 4.092-7.038.869-1.902 1.531-3.833 1.624-5.824zm-107.633-.045c0-.202.03-.407-.007-.607-.062-.355-.06-.775-.687-.917-.615-.14-1.044.155-1.432.417-.594.402-1.007.89-1.406 1.38-2.094 2.558-3.57 5.273-4.82 8.044-.757 1.677-1.404 3.37-1.614 5.12-.065.541-.12 1.089.168 1.613.205.375.61.472 1.172.32.324-.087.587-.23.821-.395.962-.67 1.624-1.469 2.224-2.283 1.944-2.638 3.393-5.394 4.517-8.225.582-1.466 1-2.95 1.064-4.472zm91.157 28.864a3.6 3.6 0 0 0 1.663-.402 5.6 5.6 0 0 0 1.599-1.197c1.519-1.631 2.399-3.443 3.421-5.212.07-.12.052-.197-.15-.25-.935-.24-1.891-.424-2.906-.347-2.381.185-4.067 1.032-5.136 2.404-.885 1.131-1.357 2.328-.955 3.607.285.907 1.174 1.4 2.461 1.394zM27.281 19.338c-2.5 1.071.755-5.207 1.507-7.735 2.008-5.527-1.81-10.234-7.03-9.904-3.516.37-1.605 1.806-1.69 3.725-.042 1.524-.624 2.988-1.179 4.452-2.943 7.685-6.031 13.277-9.339 20.812-2.8 6.38-4.282 11.6-7.445 12.052-2.973.425-2.538 4.015-.302 4.972 10.548 4.52 25.076 2.413 31.554-8.435 2.141-3.583 4.12-7.962 4.17-11.702.1-7.635-4.622-10.648-10.246-8.237M25.56 32.292c-1.187 2.75-2.581 5.451-4.52 8.014-.532.705-1.127 1.387-1.906 1.99-.302.232-.64.436-1.077.551-.507.135-.9.025-1.122-.305-.22-.327-.25-.677-.244-1.026.017-1.564.494-3.086 1.081-4.59 1.287-3.308 2.943-6.528 5.252-9.589.417-.552.877-1.081 1.416-1.599 1.517-1.449 3.14-1.281 2.856 1.162-.225 1.936-.932 3.53-1.739 5.394z"/><path fill="#FC0015" d="M124.712 0c.225.045.452.085.677.135.825.185 1.769.817 2.136 1.426-.032.06-.092.045-.14.043-2.66-.165-5.084.632-7.395 1.871-1.129.605-2.201 1.307-3.255 2.036-.243.168-.195.238.007.39 3.708 2.806 3.296 8.435-.779 10.658-3.82 2.086-8.632-.434-9.134-4.787-.465-4.022 2.688-7.362 6.695-7.088.81.055 1.582.273 2.301.65.21.11.318.082.473-.092 1.321-1.504 2.765-2.876 4.469-3.938 1.042-.65 2.139-1.157 3.383-1.262.04-.002.08-.027.117-.042zm-15.615 11.692c.497-2.698 1.894-4.577 4.552-5.419-1.509-.694-3.23-.554-4.282.847-1.014 1.352-1.187 3.57-.27 4.575z"/></svg>