<svg xmlns="http://www.w3.org/2000/svg" width="135" height="40" fill="none" viewBox="0 0 135 40"><path fill="#FFE9D9" d="M99.953 39.908c-.673-.077-1.353-.125-2.01-.26-1.187-.246-2.27-.596-2.958-1.308-.74-.766-.999-1.616-.88-2.508.156-1.179.841-2.224 1.99-3.138.567-.45 1.261-.8 2.069-1.051.113-.035.308-.057.101-.184-1.285-.78-1.81-1.795-2.09-2.887-.024-.09-.025-.181-.103-.266-.142.048-.134.144-.174.22-.652 1.213-1.51 2.346-2.767 3.353-1.993 1.596-5.173 1.265-6.794.406-1.082-.572-1.626-1.363-1.776-2.252-.2-1.188.036-2.367.351-3.537.453-1.686 1.218-3.322 1.909-4.97.454-1.08.942-2.155 1.222-3.261.063-.25.138-.505.056-.761q-.128-.393-.66-.2c-.347.127-.561.335-.754.55-.791.87-1.404 1.799-1.831 2.767-.654 1.487-1.393 2.955-2.05 4.44-.515 1.166-.974 2.34-1.18 3.55-.16.941-.097 1.85.552 2.724.44.592.184 1.065-.693 1.388-.945.348-1.955.344-2.975.166-2.216-.388-3.374-1.39-3.822-2.806-.04-.128-.018-.268-.16-.411-.156.208-.294.398-.437.586-.426.562-.962 1.077-1.565 1.566-1.483 1.205-3.447 1.401-5.554.957-1.832-.384-2.708-1.262-2.984-2.45-.068-.293-.11-.59-.166-.895-.142.035-.148.121-.188.186a8.6 8.6 0 0 1-2.212 2.345c-2.01 1.478-5.183 1.355-6.89-.284-1.11-1.066-1.659-2.252-1.674-3.547-.013-1.087.154-2.17.16-3.256a3.4 3.4 0 0 0-.34-1.53c-.034-.073-.04-.157-.197-.22-.138.32-.275.63-.405.943-.577 1.381-1.14 2.768-1.46 4.188-.197.88-.327 1.764.04 2.641.085.205.242.394.337.598.254.544.04.922-.71 1.211-.943.363-1.953.355-2.973.183-2.2-.37-3.535-1.366-3.835-2.84-.013-.07-.042-.137-.067-.219-.153.043-.17.133-.221.203a9.2 9.2 0 0 1-2.132 2.056c-1.205.837-3.004 1.131-4.499.739-1.028-.27-1.723-.753-2.084-1.437-.05-.093-.096-.186-.151-.293-.163.057-.202.159-.275.238-1.404 1.512-4.324 2.086-6.717 1.32-1.04-.333-1.693-.895-2.177-1.558-.65-.89-.96-1.835-1.062-2.812-.266-2.572.521-5.04 1.766-7.458.915-1.776 2.102-3.47 3.76-5.01.903-.839 1.915-1.618 3.159-2.257a8.95 8.95 0 0 1 4.305-.997c1.678.025 2.798.561 3.296 1.604.093.197.181.15.363.062a11.6 11.6 0 0 1 4.953-1.158 3.3 3.3 0 0 1 .799.09c.652.154.869.432.61.853-.21.342-.484.666-.717 1.002-1.173 1.691-1.964 3.47-2.783 5.241-1.083 2.344-2.028 4.71-2.902 7.089-.148.401-.245.81-.167 1.223.04.21.082.463.425.54.343.076.612-.107.834-.263.642-.455 1.071-.997 1.436-1.563.61-.946.969-1.94 1.346-2.931.893-2.349 2.04-4.647 3.2-6.944 1.143-2.262 2.301-4.522 3.178-6.837.336-.887.69-1.776.714-2.698.01-.356-.02-.707-.195-1.05-.34-.666.14-1.139 1.219-1.209a4.9 4.9 0 0 1 2.007.288c1.508.553 2.395 1.403 2.883 2.472.439.967.31 1.92.03 2.884-.678 2.325-1.731 4.582-2.805 6.837-.396.833-.777 1.67-1.165 2.504-.028.06-.07.118-.045.196.132 0 .205-.065.293-.108 1.114-.55 1.778-1.303 2.337-2.117.742-1.082 1.305-2.212 2.092-3.279.473-.64.924-1.288 1.75-1.78 1.084-.648 2.326-1.086 3.822-1.1 1.205-.011 2.354.17 3.357.64q.266.125.473.291c.607.486.536 1.009-.323 1.278-1.601.503-2.402 1.395-3.036 2.4-.472.75-.957 1.5-1.69 2.156-1.376 1.228-3.173 2.088-5.42 2.531-.358.07-.353.068-.1.246 1.182.834 1.873 1.813 2.067 2.946.183 1.057.248 2.122.581 3.168.069.214.14.43.285.63.363.503 1.166.598 1.754.197.65-.441 1.062-.984 1.451-1.531.736-1.037 1.134-2.137 1.498-3.251.884-2.701 2.037-5.352 3.594-7.926.779-1.29 2.248-2.037 4.295-2.328.493-.07.996-.072 1.493-.013 1.428.164 2.08.835 1.668 1.746-.381.843-.796 1.679-1.183 2.521-1.23 2.676-2.407 5.363-3.273 8.102-.171.541-.327 1.087-.387 1.64-.037.337.018.667.316.96.384.378.907.43 1.435.131.58-.328.937-.759 1.248-1.208.662-.952 1.127-1.947 1.524-2.96.565-1.439 1.362-2.829 2.08-4.233.761-1.487 1.529-2.973 1.96-4.52.213-.763.245-1.515-.143-2.27-.31-.6.298-1.074 1.358-1.111 1.128-.04 2.034.283 2.873.732 1.181.634 1.725 1.493 2.065 2.429l.056.15c.159-.092.215-.197.295-.292.792-.934 1.748-1.782 3.06-2.436 1.233-.616 2.62-.816 4.128-.571 1.507.243 2.256.957 2.587 1.89.255.714.218 1.437.105 2.16-.258 1.647-1.022 3.218-1.683 4.804-.82 1.97-1.606 3.946-2.295 5.938-.102.293-.145.59-.108.89.04.32.156.648.67.767.546.124.933-.112 1.245-.373.748-.623 1.179-1.352 1.628-2.076.571-.919.722-1.892.992-2.854.819-2.921 2.317-5.67 4.968-8.114 1.005-.927 2.167-1.762 3.628-2.395a8.83 8.83 0 0 1 4.271-.702c1.362.106 2.24.6 2.715 1.421.188.326.173.323.627.12 1.447-.65 3.026-1.054 4.805-1.064.398-.001.776.057 1.112.207.293.131.398.31.341.534a.84.84 0 0 1-.17.343c-1.051 1.26-1.694 2.625-2.343 3.984-1.478 3.094-2.758 6.225-3.986 9.366a34 34 0 0 1-1.302 2.942c-.026.052-.041.107-.078.198.26-.081.411-.2.568-.304q1.782-1.201 2.954-2.69a.48.48 0 0 0 .095-.328c-.037-3.786 1.528-7.285 4.5-10.52a13.9 13.9 0 0 1 4.655-3.352c1.959-.876 4.08-1.148 6.357-.654 1.669.363 2.689 1.191 3.403 2.197.639.9.881 1.865.994 2.846.011.098 0 .2.066.293v1.15c-.02.076-.051.151-.058.23a12.8 12.8 0 0 1-.609 3.012c-.739 2.257-1.941 4.399-3.79 6.374-1.226 1.309-2.694 2.484-4.69 3.324-2.327.979-4.775 1.069-7.2.203-1.601-.57-2.481-1.561-3.036-2.673-.085-.171-.158-.344-.263-.57-.181.23-.321.412-.464.592a15 15 0 0 1-5.103 4.177c-.196.1-.331.212-.431.36-.772 1.152-1.621 2.278-2.776 3.292-1.149 1.009-2.547 1.802-4.456 2.144-.421.075-.857.085-1.278.153h-.458zm21.344-12.661c-.009.228-.005.456.094.676.148.324.47.41.924.248.405-.145.676-.376.925-.618.854-.822 1.468-1.72 2.016-2.643 1.122-1.887 2.11-3.8 2.556-5.813.119-.535.222-1.07.127-1.611-.038-.217-.068-.468-.458-.543-.381-.073-.659.095-.907.26-.431.288-.725.637-1.007.99-1.621 2.022-2.739 4.167-3.61 6.371-.348.88-.621 1.77-.66 2.683m-12.393-9.254c0-.178.006-.354-.004-.532-.003-.07-.035-.14-.065-.208-.141-.33-.499-.42-.948-.238-.197.08-.36.183-.506.3-.356.28-.629.595-.886.916-1.369 1.703-2.351 3.505-3.169 5.348-.517 1.165-.97 2.342-1.065 3.561-.021.272-.016.541.107.801.146.313.469.391.91.23.261-.095.466-.233.653-.381.471-.377.835-.798 1.166-1.229 1.154-1.5 1.993-3.082 2.727-4.688.579-1.267 1.02-2.553 1.081-3.88zm-71.702-.03c0-.135.02-.271-.005-.404-.042-.236-.04-.516-.458-.611-.41-.093-.696.103-.954.278-.396.268-.67.593-.937.919-1.395 1.704-2.378 3.513-3.21 5.359-.505 1.117-.936 2.245-1.076 3.41-.043.361-.08.726.112 1.075.137.25.406.315.78.213a1.7 1.7 0 0 0 .548-.263c.64-.446 1.082-.978 1.481-1.52 1.295-1.758 2.26-3.594 3.01-5.48.387-.977.665-1.965.709-2.98zm60.725 19.229c.423.003.782-.105 1.109-.268a3.7 3.7 0 0 0 1.065-.798c1.012-1.086 1.598-2.293 2.278-3.471.047-.08.035-.132-.099-.167-.623-.16-1.26-.283-1.936-.231-1.586.123-2.71.687-3.422 1.6-.59.755-.904 1.552-.636 2.404.19.604.782.932 1.64.929zM18.174 12.882c-1.666.714.503-3.468 1.003-5.153 1.339-3.681-1.204-6.817-4.683-6.597-2.342.246-1.069 1.203-1.125 2.481-.028 1.016-.416 1.99-.786 2.966-1.96 5.12-4.017 8.845-6.221 13.864-1.866 4.251-2.853 7.728-4.96 8.03-1.98.282-1.69 2.674-.201 3.311 7.027 3.01 16.705 1.608 21.02-5.619 1.427-2.386 2.745-5.304 2.779-7.796.066-5.086-3.08-7.093-6.826-5.487m-1.147 8.63c-.79 1.832-1.72 3.631-3.01 5.339-.355.47-.751.924-1.27 1.325a2 2 0 0 1-.718.368c-.338.09-.599.016-.747-.203-.147-.219-.167-.451-.163-.684.011-1.042.33-2.056.72-3.058.857-2.204 1.961-4.349 3.499-6.388.278-.367.584-.72.944-1.065 1.01-.965 2.092-.854 1.902.774-.15 1.29-.62 2.352-1.158 3.593z"/><path fill="#FFE9D9" d="M83.08 0c.15.03.302.057.451.09.55.123 1.179.544 1.423.95-.021.04-.061.03-.093.029-1.772-.11-3.387.42-4.926 1.246-.753.403-1.467.87-2.169 1.357-.162.111-.13.158.005.26 2.47 1.868 2.195 5.618-.52 7.1-2.544 1.39-5.75-.29-6.084-3.19-.31-2.68 1.79-4.904 4.46-4.721.54.036 1.054.181 1.533.432.14.074.212.055.315-.061.88-1.002 1.842-1.916 2.977-2.623.694-.433 1.425-.77 2.254-.84.026-.002.053-.019.078-.029zM72.678 7.79c.331-1.798 1.262-3.05 3.032-3.61-1.005-.463-2.151-.37-2.852.563-.676.9-.79 2.379-.18 3.048z"/></svg>